<svg width="168" height="289" viewBox="0 0 168 289" fill="none" xmlns="http://www.w3.org/2000/svg">
<path d="M21.2773 5.32858V18.6642L150.343 18.6642V5.32858L21.2773 5.32858Z" stroke="#040306" stroke-width="0.385322" stroke-miterlimit="10" stroke-linecap="round" stroke-linejoin="round"/>
<path d="M21.2773 11.5586L21.2773 15.0978L150.322 15.0978L150.322 11.5586L21.2773 11.5586Z" stroke="#040306" stroke-width="0.385322" stroke-miterlimit="10" stroke-linecap="round" stroke-linejoin="round"/>
<path d="M130.611 256.54V288.034C130.611 288.034 102.792 287.712 99.2344 256.219" stroke="#040306" stroke-width="0.385322" stroke-miterlimit="10" stroke-linecap="round" stroke-linejoin="round"/>
<path d="M88.3144 213.015H116.772C116.772 213.015 116.481 189.12 88.0234 186.063" stroke="#040306" stroke-width="0.385322" stroke-miterlimit="10" stroke-linecap="round" stroke-linejoin="round"/>
<path d="M8.65625 108.782H12.0762" stroke="#040306" stroke-width="0.385322" stroke-linecap="round" stroke-linejoin="round"/>
<path d="M18.75 108.781H82.158" stroke="#040306" stroke-width="0.385322" stroke-linecap="round" stroke-linejoin="round" stroke-dasharray="6.72 6.72"/>
<path d="M85.5 108.781H88.917V112.051" stroke="#040306" stroke-width="0.385322" stroke-linecap="round" stroke-linejoin="round"/>
<path d="M88.9141 118.336V152.901" stroke="#040306" stroke-width="0.385322" stroke-linecap="round" stroke-linejoin="round" stroke-dasharray="6.61 6.61"/>
<path d="M88.9141 156.047V159.316" stroke="#040306" stroke-width="0.385322" stroke-linecap="round" stroke-linejoin="round"/>
<path d="M88.9141 175.953H92.3311" stroke="#040306" stroke-width="0.385322" stroke-linecap="round" stroke-linejoin="round"/>
<path d="M100.379 175.953H128.543" stroke="#040306" stroke-width="0.385322" stroke-linecap="round" stroke-linejoin="round" stroke-dasharray="8.1 8.1"/>
<path d="M132.566 175.953H135.983" stroke="#040306" stroke-width="0.385322" stroke-linecap="round" stroke-linejoin="round"/>
<path d="M88.9122 159.313H8.65625V162.975H88.9122V159.313Z" fill="#040306"/>
<path d="M88.9162 159.313H85.4062V185.571H88.9162V159.313Z" fill="#040306"/>
<path d="M88.9164 214.422H85.4844V233.504H88.9164V214.422Z" fill="#040306"/>
<path d="M16.1546 165.727H14.5586V230.76H16.1546V165.727Z" fill="#040306"/>
<path d="M86.3486 165.727H14.5586V167.176H86.3486V165.727Z" fill="#040306"/>
<path d="M54.9279 229.231H53.2539V233.123H54.9279V229.231Z" fill="#040306"/>
<path d="M54.9266 229.231H14.5586V230.758H54.9266V229.231Z" fill="#040306"/>
<path d="M159.759 173.051H135.984V175.953H159.759V173.051Z" fill="#040306"/>
<g opacity="0.8">
<path opacity="0.8" d="M32.5273 137.258H9.27734V159.503H32.5273V137.258Z" stroke="#040306" stroke-width="0.192646" stroke-miterlimit="10" stroke-linecap="round" stroke-linejoin="round"/>
<path opacity="0.8" d="M20.9149 152.093C21.8775 152.093 22.6579 151.347 22.6579 150.426C22.6579 149.505 21.8775 148.758 20.9149 148.758C19.9522 148.758 19.1719 149.505 19.1719 150.426C19.1719 151.347 19.9522 152.093 20.9149 152.093Z" stroke="#040306" stroke-width="0.192646" stroke-miterlimit="10" stroke-linecap="round" stroke-linejoin="round"/>
<path opacity="0.8" d="M20.9163 156.813C21.2907 156.813 21.5943 156.523 21.5943 156.164C21.5943 155.806 21.2907 155.516 20.9163 155.516C20.5418 155.516 20.2383 155.806 20.2383 156.164C20.2383 156.523 20.5418 156.813 20.9163 156.813Z" stroke="#040306" stroke-width="0.192646" stroke-miterlimit="10" stroke-linecap="round" stroke-linejoin="round"/>
<path opacity="0.8" d="M27.6585 156.813C28.0329 156.813 28.3365 156.523 28.3365 156.164C28.3365 155.806 28.0329 155.516 27.6585 155.516C27.284 155.516 26.9805 155.806 26.9805 156.164C26.9805 156.523 27.284 156.813 27.6585 156.813Z" stroke="#040306" stroke-width="0.192646" stroke-miterlimit="10" stroke-linecap="round" stroke-linejoin="round"/>
<path opacity="0.8" d="M30.5009 139.109H11.2949C11.2469 139.109 11.2109 139.147 11.2109 139.19V157.566C11.2109 157.612 11.2499 157.646 11.2949 157.646H30.5009C30.5489 157.646 30.5849 157.609 30.5849 157.566V139.19C30.5879 139.144 30.5489 139.109 30.5009 139.109Z" stroke="#040306" stroke-width="0.192646" stroke-miterlimit="10" stroke-linecap="round" stroke-linejoin="round"/>
<path opacity="0.8" d="M29.5434 140.039H12.2754C12.2274 140.039 12.1914 140.076 12.1914 140.12V154.787C12.1914 154.833 12.2304 154.867 12.2754 154.867H29.5434C29.5914 154.867 29.6274 154.83 29.6274 154.787V140.12C29.6304 140.076 29.5914 140.039 29.5434 140.039Z" stroke="#040306" stroke-width="0.192646" stroke-miterlimit="10" stroke-linecap="round" stroke-linejoin="round"/>
</g>
<g opacity="0.8">
<path opacity="0.8" d="M47.3154 177.885V167.024H16.3164V196.683H27.6714V195.291H17.9154V174.053L23.6214 168.416H45.6714V177.885H47.3154Z" stroke="#040306" stroke-width="0.192646" stroke-miterlimit="10" stroke-linecap="round" stroke-linejoin="round"/>
<path opacity="0.8" d="M27.6719 196.681C38.5199 196.681 47.3159 188.265 47.3159 177.883" stroke="#040306" stroke-width="0.192646" stroke-miterlimit="10" stroke-linecap="round" stroke-linejoin="round"/>
<path opacity="0.8" d="M25.201 174.642L23.014 172.55L22.921 172.458L21.949 171.528C21.949 171.528 21.484 171.112 21.073 171.505C20.665 171.898 21.1 172.34 21.1 172.34L22.069 173.27L22.165 173.362L24.352 175.455C24.352 175.455 24.817 175.871 25.228 175.48C25.636 175.087 25.201 174.642 25.201 174.642Z" stroke="#040306" stroke-width="0.192646" stroke-miterlimit="10" stroke-linecap="round" stroke-linejoin="round"/>
<path opacity="0.8" d="M30.4346 178.307C31.1636 179.004 31.1636 180.169 30.4346 180.867C29.7026 181.567 28.4876 181.567 27.7616 180.867C27.0326 180.169 27.0326 179.007 27.7616 178.307C28.4846 177.606 29.7026 177.606 30.4346 178.307Z" stroke="#040306" stroke-width="0.192646" stroke-miterlimit="10" stroke-linecap="round" stroke-linejoin="round"/>
<path opacity="0.8" d="M21.0731 171.503C21.4811 171.112 21.9491 171.526 21.9491 171.526L22.7081 172.252C23.2871 171.661 23.8001 171.046 24.1421 170.504C24.3131 170.234 24.4691 169.958 24.6101 169.677C24.7091 169.476 24.6761 169.249 24.5291 169.106C24.2261 168.876 23.9231 168.644 23.6201 168.414C23.2931 168.739 22.9661 169.06 22.6391 169.384C22.6541 169.396 22.6751 169.413 22.6901 169.442C22.8071 169.64 22.5131 170.016 22.3451 170.177C20.9951 171.471 20.5151 171.905 19.7531 172.659C19.6211 172.791 19.2491 173.167 19.0301 173.073C18.9971 173.058 18.9731 173.035 18.9611 173.021C18.6131 173.366 18.2621 173.71 17.9141 174.054C18.1571 174.301 18.3941 174.499 18.6371 174.746C18.7841 174.884 19.0121 174.921 19.2191 174.829C19.5371 174.689 19.8431 174.525 20.1401 174.353C20.6711 174.04 21.2741 173.584 21.8561 173.067L21.0971 172.341C21.1001 172.338 20.6651 171.896 21.0731 171.503Z" stroke="#040306" stroke-width="0.192646" stroke-miterlimit="10" stroke-linecap="round" stroke-linejoin="round"/>
<path opacity="0.8" d="M26.9868 177.163C28.2018 176.001 28.2018 174.115 26.9868 172.95C25.9158 171.925 24.2628 171.805 23.0508 172.585L25.2018 174.643C25.2018 174.643 25.6368 175.088 25.2288 175.481C24.8178 175.872 24.3528 175.456 24.3528 175.456L22.2018 173.398C21.3858 174.557 21.5118 176.139 22.5828 177.163C23.8008 178.326 25.7688 178.326 26.9868 177.163Z" stroke="#040306" stroke-width="0.192646" stroke-miterlimit="10" stroke-linecap="round" stroke-linejoin="round"/>
</g>
<g opacity="0.8">
<path opacity="0.8" d="M19.8977 215.922C20.249 215.922 20.5337 215.648 20.5337 215.311C20.5337 214.973 20.249 214.699 19.8977 214.699C19.5465 214.699 19.2617 214.973 19.2617 215.311C19.2617 215.648 19.5465 215.922 19.8977 215.922Z" stroke="#040306" stroke-width="0.192646" stroke-miterlimit="10" stroke-linecap="round" stroke-linejoin="round"/>
<path opacity="0.8" d="M19.8984 216.376V215.922" stroke="#040306" stroke-width="0.192646" stroke-miterlimit="10" stroke-linecap="round" stroke-linejoin="round"/>
<path opacity="0.8" d="M19.8984 214.699V214.242" stroke="#040306" stroke-width="0.192646" stroke-miterlimit="10" stroke-linecap="round" stroke-linejoin="round"/>
<path opacity="0.8" d="M21.0122 215.313H20.5352" stroke="#040306" stroke-width="0.192646" stroke-miterlimit="10" stroke-linecap="round" stroke-linejoin="round"/>
<path opacity="0.8" d="M19.2631 215.313H18.7891" stroke="#040306" stroke-width="0.192646" stroke-miterlimit="10" stroke-linecap="round" stroke-linejoin="round"/>
<path opacity="0.8" d="M25.0625 218.705V218.461" stroke="#040306" stroke-width="0.192646" stroke-miterlimit="10" stroke-linecap="round" stroke-linejoin="round"/>
<path opacity="0.8" d="M25.0625 217.803V217.559" stroke="#040306" stroke-width="0.192646" stroke-miterlimit="10" stroke-linecap="round" stroke-linejoin="round"/>
<path opacity="0.8" d="M25.6613 218.133H25.4062" stroke="#040306" stroke-width="0.192646" stroke-miterlimit="10" stroke-linecap="round" stroke-linejoin="round"/>
<path opacity="0.8" d="M24.7189 218.133H24.4609" stroke="#040306" stroke-width="0.192646" stroke-miterlimit="10" stroke-linecap="round" stroke-linejoin="round"/>
<path opacity="0.8" d="M25.0607 218.465C25.2496 218.465 25.4027 218.317 25.4027 218.135C25.4027 217.953 25.2496 217.805 25.0607 217.805C24.8719 217.805 24.7188 217.953 24.7188 218.135C24.7188 218.317 24.8719 218.465 25.0607 218.465Z" stroke="#040306" stroke-width="0.192646" stroke-miterlimit="10" stroke-linecap="round" stroke-linejoin="round"/>
<path opacity="0.8" d="M25.0607 212.817C25.2496 212.817 25.4027 212.669 25.4027 212.486C25.4027 212.304 25.2496 212.156 25.0607 212.156C24.8719 212.156 24.7188 212.304 24.7188 212.486C24.7188 212.669 24.8719 212.817 25.0607 212.817Z" stroke="#040306" stroke-width="0.192646" stroke-miterlimit="10" stroke-linecap="round" stroke-linejoin="round"/>
<path opacity="0.8" d="M25.0625 213.063V212.817" stroke="#040306" stroke-width="0.192646" stroke-miterlimit="10" stroke-linecap="round" stroke-linejoin="round"/>
<path opacity="0.8" d="M25.0625 212.161V211.914" stroke="#040306" stroke-width="0.192646" stroke-miterlimit="10" stroke-linecap="round" stroke-linejoin="round"/>
<path opacity="0.8" d="M25.6613 212.488H25.4062" stroke="#040306" stroke-width="0.192646" stroke-miterlimit="10" stroke-linecap="round" stroke-linejoin="round"/>
<path opacity="0.8" d="M24.7189 212.488H24.4609" stroke="#040306" stroke-width="0.192646" stroke-miterlimit="10" stroke-linecap="round" stroke-linejoin="round"/>
<path opacity="0.8" d="M30.5602 209.35C30.2932 209.367 30.0772 209.387 29.9332 209.402C27.3172 209.847 25.5652 210.386 22.9492 210.831C23.1112 212.177 23.2192 213.681 23.2192 215.315C23.2192 216.954 23.1112 218.463 22.9492 219.815C25.5652 220.26 27.3172 220.783 29.9332 221.228C30.0772 221.242 30.2962 221.262 30.5602 221.279C32.1292 221.377 34.7722 221.543 37.1542 220.309C37.5382 220.111 38.3122 219.701 39.0532 218.917C39.4972 218.449 40.6402 217.203 40.6402 215.361C40.6402 215.346 40.6402 215.332 40.6372 215.315C40.6372 215.3 40.6402 215.286 40.6402 215.269C40.6402 213.426 39.4972 212.18 39.0532 211.712C38.3122 210.932 37.5382 210.521 37.1542 210.32C34.7722 209.083 32.1292 209.25 30.5602 209.35Z" stroke="#040306" stroke-width="0.192646" stroke-miterlimit="10" stroke-linecap="round" stroke-linejoin="round"/>
<path opacity="0.8" d="M31 210.321C30.214 210.427 29.332 210.553 28.429 211.144C27.313 211.873 26.86 212.855 26.719 213.177C26.332 214.049 26.332 214.79 26.332 215.309C26.332 215.826 26.332 216.569 26.719 217.442C26.86 217.76 27.313 218.742 28.429 219.474C29.332 220.065 30.214 220.194 31 220.298C32.002 220.433 34.624 220.78 36.985 219.308C37.573 218.94 38.812 218.154 39.325 216.644C39.43 216.331 39.757 215.249 39.325 213.977C38.812 212.468 37.573 211.681 36.985 211.314C34.624 209.838 32.002 210.188 31 210.321Z" stroke="#040306" stroke-width="0.192646" stroke-miterlimit="10" stroke-linecap="round" stroke-linejoin="round"/>
<path opacity="0.8" d="M28.5342 212.218C27.3312 213.386 27.3372 214.913 27.3402 215.312C27.3372 215.711 27.3342 217.235 28.5342 218.406C29.5962 219.44 31.0572 219.664 32.2152 219.658C32.9322 219.652 33.4812 219.598 33.9252 219.523C35.0262 219.336 36.1332 219.15 37.0842 218.378C37.8342 217.769 38.6232 216.684 38.6082 215.303C38.5902 213.67 37.4592 212.617 37.0662 212.293C36.0792 211.477 34.9302 211.279 33.9252 211.104C33.5172 211.032 32.9532 210.972 32.2152 210.969C31.0572 210.958 29.5962 211.185 28.5342 212.218Z" stroke="#040306" stroke-width="0.192646" stroke-miterlimit="10" stroke-linecap="round" stroke-linejoin="round"/>
<path opacity="0.8" d="M29.1638 213.764C28.9748 213.827 28.6688 213.957 28.3868 214.218C28.2278 214.364 28.1228 214.513 28.0508 214.631C28.0508 214.634 28.0508 214.637 28.0508 214.637C28.0508 215.26 28.0508 215.354 28.0508 215.972C28.0508 215.974 28.0508 215.977 28.0508 215.977C28.1228 216.098 28.2278 216.244 28.3868 216.391C28.6688 216.652 28.9748 216.781 29.1638 216.844C30.0308 216.867 30.8978 216.887 31.7618 216.91C31.8788 216.904 32.3168 216.867 32.6768 216.546C32.9588 216.296 33.0398 216.009 33.0668 215.894C33.0668 215.501 33.0668 215.105 33.0668 214.712C33.0398 214.597 32.9588 214.31 32.6768 214.06C32.3168 213.738 31.8788 213.701 31.7618 213.695C30.8948 213.721 30.0278 213.744 29.1638 213.764Z" stroke="#040306" stroke-width="0.192646" stroke-miterlimit="10" stroke-linecap="round" stroke-linejoin="round"/>
<path opacity="0.8" d="M30.1875 213.738C30.3405 213.928 30.7575 214.485 30.7635 215.291C30.7695 216.121 30.3405 216.698 30.1875 216.881" stroke="#040306" stroke-width="0.192646" stroke-miterlimit="10" stroke-linecap="round" stroke-linejoin="round"/>
<path opacity="0.8" d="M16.0352 208.947V221.674C16.0352 221.846 16.1912 221.984 16.3832 221.984C16.3832 221.984 19.6052 221.984 19.9502 221.984C20.1392 221.944 20.3852 221.883 20.6612 221.78C20.9372 221.677 21.2432 221.533 21.5522 221.332C21.9602 221.065 22.2662 220.77 22.4912 220.497C22.7162 220.224 22.8632 219.978 22.9502 219.811C23.0312 219.137 23.1002 218.422 23.1482 217.67C23.1962 216.918 23.2232 216.131 23.2232 215.31C23.2232 214.492 23.1962 213.709 23.1482 212.962C23.1002 212.213 23.0342 211.501 22.9502 210.83C22.8842 210.681 22.7732 210.457 22.5932 210.207C22.4132 209.957 22.1612 209.679 21.8192 209.418C21.4472 209.139 21.0692 208.955 20.7392 208.838C20.4092 208.72 20.1272 208.666 19.9502 208.637C19.5572 208.637 16.3832 208.637 16.3832 208.637C16.1912 208.637 16.0352 208.775 16.0352 208.947Z" stroke="#040306" stroke-width="0.192646" stroke-miterlimit="10" stroke-linecap="round" stroke-linejoin="round"/>
</g>
<g opacity="0.8">
<path opacity="0.8" d="M61.0152 173.652C61.0152 174.119 60.6162 174.498 60.1272 174.498C59.6382 174.498 59.2422 174.119 59.2422 173.652C59.2422 173.184 59.6382 172.805 60.1272 172.805C60.6162 172.802 61.0152 173.181 61.0152 173.652Z" stroke="#040306" stroke-width="0.192646" stroke-miterlimit="10" stroke-linecap="round" stroke-linejoin="round"/>
<path opacity="0.8" d="M58.832 173.652H61.418" stroke="#040306" stroke-width="0.192646" stroke-miterlimit="10" stroke-linecap="round" stroke-linejoin="round"/>
<path opacity="0.8" d="M60.125 174.888V172.414" stroke="#040306" stroke-width="0.192646" stroke-miterlimit="10" stroke-linecap="round" stroke-linejoin="round"/>
<path opacity="0.8" d="M60.7603 169.585C60.7603 169.921 60.4753 170.194 60.1243 170.194C59.7733 170.194 59.4883 169.921 59.4883 169.585C59.4883 169.249 59.7733 168.977 60.1243 168.977C60.4753 168.977 60.7603 169.249 60.7603 169.585Z" stroke="#040306" stroke-width="0.192646" stroke-miterlimit="10" stroke-linecap="round" stroke-linejoin="round"/>
<path opacity="0.8" d="M59.1133 169.586H61.1443" stroke="#040306" stroke-width="0.192646" stroke-miterlimit="10" stroke-linecap="round" stroke-linejoin="round"/>
<path opacity="0.8" d="M60.125 170.561V168.617" stroke="#040306" stroke-width="0.192646" stroke-miterlimit="10" stroke-linecap="round" stroke-linejoin="round"/>
<path opacity="0.8" d="M69.7044 173.294C69.7374 172.858 69.7584 172.318 69.7374 171.698C69.7284 171.457 69.7044 170.995 69.6294 170.412C69.5664 169.933 69.4644 169.339 69.2874 168.661C69.0954 168.113 68.9064 167.568 68.7144 167.02C68.7144 167.02 68.7114 167.02 68.7084 167.02C68.4654 167.02 51.4824 167.02 51.4104 167.02H51.4044C51.2124 167.568 51.0234 168.113 50.8314 168.661C50.6544 169.339 50.5524 169.933 50.4894 170.412C50.4144 170.992 50.3904 171.454 50.3814 171.698C50.3574 172.318 50.3784 172.858 50.4144 173.294C50.4264 173.9 50.5763 177.778 53.8613 180.309C56.2914 182.184 59.0124 182.224 60.0594 182.224C61.1064 182.224 63.8274 182.187 66.2574 180.309C69.5424 177.775 69.6924 173.9 69.7044 173.294Z" stroke="#040306" stroke-width="0.192646" stroke-miterlimit="10" stroke-linecap="round" stroke-linejoin="round"/>
<path opacity="0.8" d="M67.055 174.243C67.076 174.03 67.094 173.743 66.989 173.402C66.983 173.384 66.977 173.37 66.974 173.356C66.974 173.356 66.8661 173.057 66.6291 172.787C65.3811 171.375 60.125 171.375 60.125 171.375C57.236 171.375 54.806 171.524 53.717 172.784C53.462 173.063 53.3841 173.313 53.3721 173.353C53.2371 173.729 53.2851 174.182 53.2881 174.24C53.3181 174.673 53.333 174.888 53.399 175.198C53.777 176.978 54.5541 178.083 54.5541 178.083C55.1331 178.907 55.766 179.406 56.096 179.662C56.36 179.868 56.765 180.178 57.35 180.463C58.631 181.085 59.81 181.117 60.125 181.12C61.514 181.129 62.534 180.675 62.996 180.463C63.335 180.288 63.779 180.029 64.25 179.662C64.574 179.409 65.21 178.91 65.792 178.083C65.792 178.083 66.578 176.967 66.947 175.198C66.986 175.006 67.007 174.751 67.055 174.243Z" stroke="#040306" stroke-width="0.192646" stroke-miterlimit="10" stroke-linecap="round" stroke-linejoin="round"/>
</g>
<path d="M25.57 5.27356V11.3816H23.974V18.7096H8.977V232.51H89.233V249.379H96.094V257.014H81.097V239.763H1V5.27356H25.57Z" fill="#040306" stroke="#040306" stroke-width="0.764966" stroke-miterlimit="10" stroke-linecap="round" stroke-linejoin="round"/>
<path d="M74.3336 5.27356H54.3086V11.528H56.8226V18.7096H71.8196V11.528H74.3336V5.27356Z" fill="#040306" stroke="#040306" stroke-width="0.764966" stroke-miterlimit="10" stroke-linecap="round" stroke-linejoin="round"/>
<path d="M142.366 5.27356V11.3816H143.962V18.6321H159.757V248.923H133.75V256.707H166.939V5.27356H142.366Z" fill="#040306" stroke="#040306" stroke-width="0.764966" stroke-miterlimit="10" stroke-linecap="round" stroke-linejoin="round"/>
<path d="M166.778 1.00012H148.109V5.80795H166.778V1.00012Z" fill="#040306" stroke="#040306" stroke-width="0.764966" stroke-miterlimit="10" stroke-linecap="round" stroke-linejoin="round"/>
<path d="M49.4721 31.88L48.4101 32.8961C48.3201 32.9793 48.2121 33.0224 48.0861 33.0224C47.7771 33.0224 47.6211 32.876 47.6211 32.5803C47.6211 32.4598 47.6661 32.3565 47.7531 32.2732L49.5621 30.5424C49.6821 30.4276 49.8081 30.3673 49.9341 30.3673C50.2431 30.3673 50.3961 30.5137 50.3961 30.8093V38.7745C50.3961 39.0702 50.2431 39.2166 49.9341 39.2166C49.6251 39.2166 49.4721 39.0702 49.4721 38.7745V31.88Z" fill="#040306"/>
<path d="M54.3638 34.7955H53.4398C53.1308 34.7955 52.9778 34.6491 52.9778 34.3534C52.9778 34.0578 53.1308 33.9114 53.4398 33.9114H54.3638C54.7508 33.9114 55.0808 33.7822 55.3478 33.5268C55.6178 33.2684 55.7498 32.9556 55.7498 32.5853C55.7498 32.2179 55.6148 31.905 55.3448 31.6467C55.0748 31.3884 54.7478 31.2592 54.3638 31.2592H52.5128C52.2038 31.2592 52.0508 31.1128 52.0508 30.8172C52.0508 30.5215 52.2038 30.3751 52.5128 30.3751H54.3638C55.0028 30.3751 55.5488 30.5933 56.0018 31.0267C56.4518 31.4601 56.6768 31.9825 56.6768 32.5882C56.6768 33.3201 56.3678 33.9114 55.7528 34.3592C56.3708 34.8069 56.6768 35.3954 56.6768 36.1302V37.0142C56.6768 37.6256 56.4488 38.148 55.9958 38.5814C55.5428 39.012 54.9968 39.2273 54.3638 39.2273H52.5128C52.2038 39.2273 52.0508 39.0809 52.0508 38.7852C52.0508 38.4896 52.2038 38.3432 52.5128 38.3432H54.3638C54.7508 38.3432 55.0808 38.214 55.3478 37.9586C55.6178 37.7002 55.7498 37.3874 55.7498 37.0171V36.133C55.7498 35.7656 55.6148 35.4528 55.3448 35.1944C55.0748 34.9361 54.7478 34.7955 54.3638 34.7955Z" fill="#040306"/>
<path d="M58.8332 38.3322C59.1422 38.3322 59.2953 38.4785 59.2953 38.7684C59.2953 38.8086 59.1363 39.4372 58.8183 40.6514C58.7613 40.8753 58.6113 40.9872 58.3683 40.9872C58.0593 40.9872 57.9062 40.8408 57.9062 40.5452C57.9062 40.3443 58.0652 39.7185 58.3832 38.668C58.4492 38.4441 58.5992 38.3322 58.8332 38.3322Z" fill="#040306"/>
<path d="M60.7422 37.0064C60.7422 36.9576 60.7482 36.9174 60.7572 36.8859L62.6082 30.6888C62.6742 30.4735 62.8242 30.3673 63.0582 30.3673C63.3672 30.3673 63.5202 30.5166 63.5202 30.8122C63.5202 30.8524 63.5142 30.8955 63.5052 30.9385L61.8192 36.5644H63.9852V35.2354C63.9852 34.9398 64.1382 34.7934 64.4472 34.7934C64.7562 34.7934 64.9092 34.9398 64.9092 35.2354V36.5644H65.8332C66.1422 36.5644 66.2952 36.7108 66.2952 37.0064C66.2952 37.3021 66.1422 37.4484 65.8332 37.4484H64.9092V38.7774C64.9092 39.0731 64.7562 39.2194 64.4472 39.2194C64.1382 39.2194 63.9852 39.0731 63.9852 38.7774V37.4484H61.2102C60.8982 37.4484 60.7422 37.2992 60.7422 37.0064Z" fill="#040306"/>
<path d="M69.4549 35.2364H69.1099C68.8009 35.2364 68.6449 35.0901 68.6449 34.7944C68.6449 34.4988 68.7979 34.3524 69.1069 34.3524H69.6529L70.3789 31.2553H67.2589C66.9499 31.2553 66.7969 31.1089 66.7969 30.8132C66.7969 30.5176 66.9499 30.3712 67.2589 30.3712H70.9579C71.2609 30.3712 71.4169 30.5147 71.4199 30.8018C71.4199 30.8276 71.4139 30.8649 71.4049 30.908L70.6039 34.3553H70.9549C71.2639 34.3553 71.4169 34.5016 71.4169 34.7973C71.4169 35.0929 71.2609 35.2393 70.9519 35.2393H70.3879L69.5509 38.876C69.4939 39.1085 69.3469 39.2234 69.1099 39.2234C68.7979 39.2234 68.6389 39.077 68.6389 38.7813C68.6389 38.7354 68.6419 38.7038 68.6479 38.6809L69.4549 35.2364Z" fill="#040306"/>
<path d="M132.305 205.763H131.381C131.072 205.763 130.919 205.617 130.919 205.321C130.919 205.025 131.072 204.879 131.381 204.879H132.305C132.692 204.879 133.022 204.75 133.289 204.494C133.556 204.239 133.691 203.923 133.691 203.553C133.691 203.186 133.556 202.873 133.286 202.614C133.016 202.356 132.689 202.224 132.305 202.224H130.454C130.145 202.224 129.992 202.078 129.992 201.782C129.992 201.486 130.145 201.34 130.454 201.34H132.305C132.944 201.34 133.49 201.555 133.943 201.992C134.393 202.425 134.618 202.947 134.618 203.553C134.618 204.285 134.309 204.876 133.694 205.324C134.312 205.772 134.618 206.36 134.618 207.095V207.979C134.618 208.59 134.39 209.113 133.937 209.546C133.484 209.977 132.938 210.192 132.305 210.192H130.454C130.145 210.192 129.992 210.046 129.992 209.75C129.992 209.454 130.145 209.308 130.454 209.308H132.305C132.692 209.308 133.022 209.179 133.289 208.923C133.556 208.668 133.691 208.352 133.691 207.982V207.098C133.691 206.73 133.556 206.418 133.286 206.159C133.016 205.901 132.686 205.763 132.305 205.763Z" fill="#040306"/>
<path d="M136.771 209.301C137.08 209.301 137.233 209.447 137.233 209.737C137.233 209.777 137.074 210.406 136.756 211.62C136.699 211.844 136.549 211.956 136.306 211.956C135.997 211.956 135.844 211.81 135.844 211.514C135.844 211.313 136.003 210.687 136.321 209.637C136.387 209.413 136.537 209.301 136.771 209.301Z" fill="#040306"/>
<path d="M141.032 210.188C140.393 210.188 139.847 209.973 139.394 209.542C138.941 209.112 138.719 208.589 138.719 207.975V207.091C138.719 206.359 139.028 205.768 139.643 205.32C139.025 204.872 138.719 204.284 138.719 203.549C138.719 202.938 138.944 202.415 139.394 201.982C139.844 201.548 140.39 201.336 141.032 201.336C141.674 201.336 142.217 201.551 142.67 201.982C143.12 202.412 143.345 202.935 143.345 203.549C143.345 204.281 143.036 204.872 142.421 205.32C142.865 205.642 143.144 206.038 143.261 206.508C143.318 206.747 143.345 207.235 143.345 207.978C143.345 208.589 143.12 209.112 142.67 209.545C142.217 209.973 141.671 210.188 141.032 210.188ZM141.032 204.875C141.419 204.875 141.749 204.746 142.016 204.491C142.283 204.235 142.418 203.919 142.418 203.549C142.418 203.182 142.283 202.869 142.013 202.61C141.743 202.352 141.416 202.22 141.032 202.22C140.645 202.22 140.315 202.349 140.048 202.605C139.778 202.863 139.646 203.176 139.646 203.546C139.646 203.917 139.781 204.232 140.048 204.488C140.315 204.749 140.645 204.875 141.032 204.875ZM141.032 209.301C141.419 209.301 141.749 209.172 142.016 208.917C142.283 208.661 142.418 208.345 142.418 207.975V207.091C142.418 206.724 142.283 206.411 142.013 206.152C141.743 205.894 141.416 205.762 141.032 205.762C140.645 205.762 140.315 205.891 140.048 206.147C139.778 206.405 139.646 206.718 139.646 207.088V207.972C139.646 208.343 139.781 208.658 140.048 208.914C140.315 209.172 140.645 209.301 141.032 209.301Z" fill="#040306"/>
<path d="M147.086 205.763H146.162C145.853 205.763 145.7 205.617 145.7 205.321C145.7 205.025 145.853 204.879 146.162 204.879H147.086C147.473 204.879 147.803 204.75 148.07 204.494C148.337 204.239 148.472 203.923 148.472 203.553C148.472 203.186 148.337 202.873 148.067 202.614C147.797 202.356 147.47 202.224 147.086 202.224H145.235C144.926 202.224 144.773 202.078 144.773 201.782C144.773 201.486 144.926 201.34 145.235 201.34H147.086C147.725 201.34 148.271 201.555 148.721 201.992C149.171 202.428 149.396 202.947 149.396 203.553C149.396 204.285 149.087 204.876 148.472 205.324C149.09 205.772 149.396 206.36 149.396 207.095V207.979C149.396 208.59 149.168 209.113 148.715 209.546C148.262 209.977 147.719 210.192 147.083 210.192H145.232C144.923 210.192 144.77 210.046 144.77 209.75C144.77 209.454 144.923 209.308 145.232 209.308H147.083C147.47 209.308 147.8 209.179 148.067 208.923C148.334 208.668 148.469 208.352 148.469 207.982V207.098C148.469 206.73 148.334 206.418 148.064 206.159C147.794 205.901 147.47 205.763 147.086 205.763Z" fill="#040306"/>
<path d="M49.7436 130.254C50.3826 130.254 50.9286 130.469 51.3816 130.9C51.8316 131.33 52.0566 131.853 52.0566 132.467C52.0566 132.886 51.9156 133.311 51.6366 133.741L48.7206 138.222H51.5946C51.9036 138.222 52.0566 138.368 52.0566 138.664C52.0566 138.96 51.9036 139.106 51.5946 139.106H47.8956C47.5866 139.106 47.4336 138.96 47.4336 138.664C47.4336 138.575 47.4606 138.489 47.5116 138.409L50.9016 133.199C51.0546 132.961 51.1326 132.72 51.1326 132.467C51.1326 132.1 50.9976 131.787 50.7276 131.528C50.4576 131.27 50.1306 131.138 49.7466 131.138C49.2246 131.138 48.7386 131.508 48.2946 132.252C48.2106 132.395 48.0786 132.467 47.8956 132.467C47.5866 132.467 47.4336 132.321 47.4336 132.025C47.4336 131.959 47.4486 131.899 47.4756 131.844C48.0486 130.782 48.8046 130.254 49.7436 130.254Z" fill="#040306"/>
<path d="M54.4622 138.219C54.7712 138.219 54.9242 138.365 54.9242 138.655C54.9242 138.695 54.7652 139.324 54.4472 140.538C54.3902 140.762 54.2402 140.874 53.9972 140.874C53.6882 140.874 53.5352 140.728 53.5352 140.432C53.5352 140.231 53.6942 139.605 54.0122 138.555C54.0782 138.331 54.2282 138.219 54.4622 138.219Z" fill="#040306"/>
<path d="M57.4867 139.105C57.3637 139.105 57.2587 139.059 57.1657 138.97C57.0727 138.881 57.0247 138.778 57.0247 138.66C57.0247 138.454 57.1027 138.327 57.2557 138.278C57.5917 138.172 57.8737 138.049 58.0957 137.908C59.0917 137.291 59.6467 136.507 59.7637 135.56H58.4107C57.7717 135.56 57.2257 135.345 56.7727 134.914C56.3197 134.484 56.0977 133.961 56.0977 133.347V132.463C56.0977 131.852 56.3227 131.329 56.7727 130.896C57.2227 130.463 57.7687 130.25 58.4107 130.25C59.0557 130.25 59.6017 130.463 60.0517 130.89C60.5017 131.318 60.7237 131.837 60.7237 132.449V135.118C60.7237 136.619 59.9917 137.808 58.5307 138.68C58.0597 138.964 57.7117 139.105 57.4867 139.105ZM59.7997 134.679V132.466C59.7997 132.099 59.6647 131.786 59.3947 131.527C59.1247 131.269 58.7977 131.137 58.4137 131.137C58.0297 131.137 57.7027 131.266 57.4327 131.527C57.1627 131.786 57.0277 132.099 57.0277 132.466V133.35C57.0277 133.72 57.1627 134.036 57.4297 134.292C57.6997 134.55 58.0267 134.676 58.4137 134.676H59.7997V134.679Z" fill="#040306"/>
<path d="M64.6958 139.106C64.0568 139.106 63.5108 138.891 63.0578 138.46C62.6048 138.03 62.3828 137.507 62.3828 136.893V136.009C62.3828 135.277 62.6918 134.686 63.3068 134.238C62.6888 133.79 62.3828 133.202 62.3828 132.467C62.3828 131.856 62.6078 131.333 63.0578 130.9C63.5078 130.466 64.0538 130.254 64.6958 130.254C65.3378 130.254 65.8808 130.469 66.3338 130.9C66.7838 131.33 67.0088 131.853 67.0088 132.467C67.0088 133.199 66.6998 133.79 66.0848 134.238C66.5288 134.56 66.8078 134.956 66.9248 135.426C66.9818 135.665 67.0088 136.153 67.0088 136.896C67.0088 137.507 66.7838 138.03 66.3338 138.463C65.8808 138.891 65.3348 139.106 64.6958 139.106ZM64.6958 133.793C65.0828 133.793 65.4128 133.664 65.6798 133.409C65.9468 133.153 66.0818 132.837 66.0818 132.467C66.0818 132.1 65.9468 131.787 65.6768 131.528C65.4068 131.27 65.0798 131.138 64.6958 131.138C64.3088 131.138 63.9788 131.267 63.7118 131.523C63.4418 131.781 63.3098 132.094 63.3098 132.464C63.3098 132.834 63.4448 133.15 63.7118 133.406C63.9788 133.667 64.3058 133.793 64.6958 133.793ZM64.6958 138.219C65.0828 138.219 65.4128 138.09 65.6798 137.835C65.9468 137.579 66.0818 137.263 66.0818 136.893V136.009C66.0818 135.642 65.9468 135.329 65.6768 135.07C65.4068 134.812 65.0798 134.68 64.6958 134.68C64.3088 134.68 63.9788 134.809 63.7118 135.065C63.4418 135.323 63.3098 135.636 63.3098 136.006V136.89C63.3098 137.261 63.4448 137.576 63.7118 137.832C63.9788 138.09 64.3058 138.219 64.6958 138.219Z" fill="#040306"/>
<path d="M49.7388 207.482H48.8148C48.5058 207.482 48.3528 207.336 48.3528 207.04C48.3528 206.744 48.5058 206.598 48.8148 206.598H49.7388C50.1258 206.598 50.4558 206.469 50.7228 206.213C50.9898 205.958 51.1248 205.642 51.1248 205.272C51.1248 204.904 50.9898 204.591 50.7198 204.333C50.4498 204.075 50.1228 203.943 49.7388 203.943H47.8878C47.5788 203.943 47.4258 203.796 47.4258 203.501C47.4258 203.205 47.5788 203.059 47.8878 203.059H49.7388C50.3778 203.059 50.9238 203.274 51.3768 203.71C51.8268 204.144 52.0518 204.666 52.0518 205.272C52.0518 206.004 51.7428 206.595 51.1278 207.043C51.7458 207.491 52.0518 208.079 52.0518 208.814V209.698C52.0518 210.309 51.8238 210.832 51.3708 211.265C50.9178 211.696 50.3718 211.911 49.7388 211.911H47.8878C47.5788 211.911 47.4258 211.764 47.4258 211.469C47.4258 211.173 47.5788 211.027 47.8878 211.027H49.7388C50.1258 211.027 50.4558 210.898 50.7228 210.642C50.9898 210.387 51.1248 210.071 51.1248 209.701V208.811C51.1248 208.443 50.9898 208.131 50.7198 207.872C50.4498 207.614 50.1228 207.482 49.7388 207.482Z" fill="#040306"/>
<path d="M54.2043 211.024C54.5133 211.024 54.6663 211.17 54.6663 211.46C54.6663 211.5 54.5073 212.129 54.1893 213.343C54.1323 213.567 53.9823 213.679 53.7393 213.679C53.4303 213.679 53.2773 213.532 53.2773 213.237C53.2773 213.036 53.4363 212.41 53.7543 211.359C53.8233 211.135 53.9733 211.024 54.2043 211.024Z" fill="#040306"/>
<path d="M58.6411 203.055C59.2801 203.055 59.8261 203.27 60.2791 203.701C60.7291 204.131 60.9541 204.654 60.9541 205.268C60.9541 205.687 60.8131 206.112 60.5341 206.542L57.6181 211.023H60.4921C60.8011 211.023 60.9541 211.169 60.9541 211.465C60.9541 211.761 60.8011 211.907 60.4921 211.907H56.7901C56.4811 211.907 56.3281 211.761 56.3281 211.465C56.3281 211.376 56.3551 211.29 56.4061 211.209L59.7961 206C59.9491 205.762 60.0271 205.52 60.0271 205.268C60.0271 204.9 59.8921 204.588 59.6221 204.329C59.3521 204.071 59.0251 203.939 58.6411 203.939C58.1191 203.939 57.6331 204.309 57.1891 205.053C57.1051 205.196 56.9731 205.268 56.7901 205.268C56.4811 205.268 56.3281 205.121 56.3281 204.826C56.3281 204.76 56.3431 204.7 56.3701 204.645C56.9461 203.586 57.7021 203.055 58.6411 203.055Z" fill="#040306"/>
<path d="M65.7526 203.055C66.0616 203.055 66.2146 203.201 66.2146 203.497C66.2146 203.715 66.1366 203.844 65.9836 203.879C65.2966 204.045 64.6966 204.438 64.1836 205.058C63.7786 205.549 63.5416 206.063 63.4756 206.594H64.8286C65.4826 206.594 66.0316 206.809 66.4756 207.237C66.9196 207.667 67.1416 208.19 67.1416 208.807V209.691C67.1416 210.308 66.9166 210.831 66.4666 211.261C66.0166 211.692 65.4706 211.904 64.8286 211.904C64.1836 211.904 63.6376 211.692 63.1876 211.264C62.7376 210.836 62.5156 210.317 62.5156 209.705V207.036C62.5156 206.034 62.8636 205.156 63.5596 204.401C64.1026 203.815 64.6936 203.399 65.3326 203.152C65.5126 203.089 65.6536 203.055 65.7526 203.055ZM63.4396 207.481V209.694C63.4396 210.064 63.5746 210.38 63.8416 210.635C64.1116 210.894 64.4386 211.02 64.8256 211.02C65.2126 211.02 65.5426 210.891 65.8096 210.633C66.0766 210.374 66.2116 210.061 66.2116 209.694V208.81C66.2116 208.44 66.0766 208.124 65.8066 207.868C65.5366 207.613 65.2096 207.484 64.8256 207.484H63.4396V207.481Z" fill="#040306"/>
</svg>
